<svg width="24" height="24" viewBox="0 0 24 24" fill="none" xmlns="http://www.w3.org/2000/svg">
<g clip-path="url(#clip0_1_134)">
<path d="M12 0C8.8174 0 5.76515 1.26428 3.51471 3.51472C1.26428 5.76516 -2.86102e-06 8.8174 -2.86102e-06 12C-2.86102e-06 15.1826 1.26428 18.2348 3.51471 20.4853C5.76515 22.7357 8.8174 24 12 24C15.1826 24 18.2348 22.7357 20.4853 20.4853C22.7357 18.2348 24 15.1826 24 12C24 8.8174 22.7357 5.76516 20.4853 3.51472C18.2348 1.26428 15.1826 0 12 0ZM12 21.75C9.41414 21.75 6.93419 20.7228 5.10571 18.8943C3.27723 17.0658 2.25 14.5859 2.25 12C2.25 9.41414 3.27723 6.93419 5.10571 5.10571C6.93419 3.27723 9.41414 2.25 12 2.25C14.5859 2.25 17.0658 3.27723 18.8943 5.10571C20.7228 6.93419 21.75 9.41414 21.75 12C21.75 14.5859 20.7228 17.0658 18.8943 18.8943C17.0658 20.7228 14.5859 21.75 12 21.75Z" fill="black"/>
<path d="M8.31447 16.5645L10.4355 18.6855L17.121 12L10.4355 5.31451L8.31447 7.43551L12.879 12L8.31447 16.5645Z" fill="black"/>
</g>
<defs>
<clipPath id="clip0_1_134">
<rect width="24" height="24" fill="white" transform="matrix(0 1 -1 0 24 0)"/>
</clipPath>
</defs>
</svg>
