<svg width="36" height="36" viewBox="0 0 36 36" fill="none" xmlns="http://www.w3.org/2000/svg">
<path d="M18.2518 0.00167238C8.12899 -0.135046 -0.135052 8.1286 0.00167246 18.2509C0.136666 27.9588 8.04159 35.8633 17.7499 35.9983C27.8744 36.1367 36.1367 27.8731 35.9983 17.7508C35.865 8.0412 27.9601 0.13666 18.2518 0.00167238ZM16.7989 16.6562L21.2597 11.5509C21.5014 11.2743 21.843 11.1051 22.2095 11.0805C22.5759 11.0558 22.9371 11.1777 23.2137 11.4193C23.4902 11.661 23.6595 12.0026 23.6841 12.369C23.7088 12.7355 23.5869 13.0967 23.3452 13.3732L18.8844 18.4785C18.7647 18.6154 18.6192 18.7274 18.4563 18.8082C18.2933 18.8889 18.1161 18.9367 17.9346 18.9489C17.7532 18.9611 17.5711 18.9375 17.3988 18.8793C17.2265 18.8212 17.0673 18.7297 16.9304 18.61C16.7935 18.4904 16.6815 18.3449 16.6007 18.182C16.52 18.019 16.4722 17.8418 16.46 17.6603C16.4478 17.4789 16.4714 17.2968 16.5295 17.1245C16.5877 16.9522 16.6792 16.7931 16.7989 16.6562ZM13.4362 24.5174C13.1765 24.7769 12.8245 24.9226 12.4574 24.9226C12.0904 24.9226 11.7384 24.7769 11.4787 24.5174L7.32941 20.364C7.20089 20.2354 7.09896 20.0827 7.02944 19.9146C6.95993 19.7466 6.92419 19.5666 6.92427 19.3847C6.92435 19.2029 6.96025 19.0228 7.02991 18.8549C7.09957 18.6869 7.20164 18.5343 7.33028 18.4058C7.45892 18.2773 7.61161 18.1754 7.77964 18.1059C7.94767 18.0363 8.12775 18.0006 8.30959 18.0007C8.49144 18.0008 8.67148 18.0367 8.83945 18.1063C9.00742 18.176 9.16003 18.278 9.28855 18.4067L13.4422 22.5601C13.7009 22.8205 13.8455 23.173 13.8444 23.54C13.8433 23.9071 13.6964 24.2586 13.4362 24.5174ZM28.7354 13.3732L19.054 24.4491C18.9292 24.592 18.7765 24.7078 18.6051 24.7892C18.4338 24.8706 18.2475 24.9159 18.058 24.9224H18.0112C17.8293 24.9224 17.6491 24.8866 17.4811 24.817C17.313 24.7473 17.1603 24.6453 17.0317 24.5166L12.8832 20.3631C12.6236 20.1033 12.4779 19.7511 12.4781 19.3839C12.4782 19.0166 12.6243 18.6645 12.8841 18.4049C13.1439 18.1454 13.4961 17.9997 13.8634 17.9998C14.2306 18 14.5828 18.146 14.8423 18.4058L17.4211 20.987C17.4881 21.0541 17.5682 21.1066 17.6564 21.1414C17.7446 21.1763 17.839 21.1926 17.9337 21.1894C18.0285 21.1863 18.1216 21.1637 18.2073 21.1231C18.293 21.0824 18.3694 21.0246 18.4318 20.9533L26.6526 11.5509C26.8942 11.2743 27.2359 11.1051 27.6023 11.0805C27.9687 11.0558 28.33 11.1777 28.6065 11.4193C28.8831 11.661 29.0523 12.0026 29.077 12.369C29.1016 12.7355 28.9797 13.0967 28.738 13.3732H28.7354Z" fill="#5B9C34"/>
</svg>
