<svg width="24" height="24" viewBox="0 0 24 24" fill="none" xmlns="http://www.w3.org/2000/svg">
<path d="M3.42857 5.53846H20.5714C21.4807 5.53846 22.3528 5.92747 22.9958 6.61991C23.6388 7.31236 24 8.25151 24 9.23077V14.7692C24 15.7485 23.6388 16.6876 22.9958 17.3801C22.3528 18.0725 21.4807 18.4615 20.5714 18.4615H3.42857C2.51926 18.4615 1.64719 18.0725 1.00421 17.3801C0.361223 16.6876 0 15.7485 0 14.7692V9.23077C0 8.25151 0.361223 7.31236 1.00421 6.61991C1.64719 5.92747 2.51926 5.53846 3.42857 5.53846ZM3.42857 7.38462C2.97391 7.38462 2.53788 7.57912 2.21639 7.92534C1.8949 8.27156 1.71429 8.74114 1.71429 9.23077V14.7692C1.71429 15.2589 1.8949 15.7284 2.21639 16.0747C2.53788 16.4209 2.97391 16.6154 3.42857 16.6154H20.5714C21.0261 16.6154 21.4621 16.4209 21.7836 16.0747C22.1051 15.7284 22.2857 15.2589 22.2857 14.7692V9.23077C22.2857 8.74114 22.1051 8.27156 21.7836 7.92534C21.4621 7.57912 21.0261 7.38462 20.5714 7.38462H3.42857ZM0 0.923077C0 0.678262 0.0903058 0.443473 0.251051 0.270363C0.411797 0.0972524 0.629814 0 0.857143 0H23.1429C23.3702 0 23.5882 0.0972524 23.7489 0.270363C23.9097 0.443473 24 0.678262 24 0.923077C24 1.16789 23.9097 1.40268 23.7489 1.57579C23.5882 1.7489 23.3702 1.84615 23.1429 1.84615H0.857143C0.629814 1.84615 0.411797 1.7489 0.251051 1.57579C0.0903058 1.40268 0 1.16789 0 0.923077ZM0 23.0769C0 22.8321 0.0903058 22.5973 0.251051 22.4242C0.411797 22.2511 0.629814 22.1538 0.857143 22.1538H23.1429C23.3702 22.1538 23.5882 22.2511 23.7489 22.4242C23.9097 22.5973 24 22.8321 24 23.0769C24 23.3217 23.9097 23.5565 23.7489 23.7296C23.5882 23.9027 23.3702 24 23.1429 24H0.857143C0.629814 24 0.411797 23.9027 0.251051 23.7296C0.0903058 23.5565 0 23.3217 0 23.0769Z" fill="black"/>
</svg>
